<svg version="1.0" xmlns="http://www.w3.org/2000/svg"
 width="32.000000pt" height="32.000000pt" viewBox="0 0 32.000000 32.000000"
 preserveAspectRatio="xMidYMid meet">

<g transform="translate(0.000000,32.000000) scale(0.100000,-0.100000)"
fill="#000000" stroke="none">
<path d="M94 281 c-32 -20 -64 -57 -64 -76 0 -5 9 5 20 23 26 42 81 66 134 59
26 -4 35 -2 25 4 -24 15 -82 10 -115 -10z"/>
<path d="M236 271 c-9 -10 -16 -24 -16 -31 0 -8 -15 -30 -32 -50 l-33 -35 35
33 c20 17 43 32 51 32 9 0 23 8 31 18 13 15 13 19 -3 34 -16 15 -18 15 -33 -1z
m29 -22 c0 -7 -8 -15 -17 -17 -18 -3 -25 18 -11 32 10 10 28 1 28 -15z"/>
<path d="M95 225 c-35 -34 -35 -96 0 -130 34 -35 96 -35 130 0 20 19 25 33 23
67 l-1 43 -4 -40 c-6 -54 -36 -85 -83 -85 -48 0 -80 33 -80 81 0 46 32 76 85
82 l40 4 -43 1 c-34 2 -48 -3 -67 -23z"/>
<path d="M284 166 c1 -68 -24 -105 -82 -126 -37 -13 -47 -13 -84 0 -49 18 -75
50 -88 110 l-9 45 4 -44 c4 -53 29 -90 76 -113 66 -34 138 -12 179 54 20 33
26 93 12 115 -5 7 -8 -11 -8 -41z"/>
<path d="M126 194 c-20 -20 -20 -48 0 -68 31 -32 85 -8 83 37 -1 21 -1 21 -8
-2 -8 -29 -33 -46 -55 -38 -39 15 -30 66 15 78 23 7 23 7 2 8 -12 1 -29 -6
-37 -15z"/>
</g>
</svg>
