<svg version="1.0" xmlns="http://www.w3.org/2000/svg"
 width="32.000000pt" height="32.000000pt" viewBox="0 0 32.000000 32.000000"
 preserveAspectRatio="xMidYMid meet">

<g transform="translate(0.000000,32.000000) scale(0.100000,-0.100000)"
fill="#000000" stroke="none">
<path d="M150 280 c0 -11 5 -20 10 -20 6 0 10 9 10 20 0 11 -4 20 -10 20 -5 0
-10 -9 -10 -20z"/>
<path d="M50 256 c0 -2 8 -10 18 -17 15 -13 16 -12 3 4 -13 16 -21 21 -21 13z"/>
<path d="M61 194 c-12 -15 -21 -34 -21 -43 1 -9 28 -45 60 -81 l60 -65 60 65
c32 36 59 72 60 81 0 9 -9 28 -21 43 -19 24 -26 26 -99 26 -73 0 -80 -2 -99
-26z m77 -1 c-2 -10 -10 -18 -18 -18 -8 0 -16 8 -18 18 -2 12 3 17 18 17 15 0
20 -5 18 -17z m82 3 c0 -21 -21 -31 -31 -15 -14 22 -11 29 11 29 11 0 20 -6
20 -14z m-120 -27 c0 -5 -9 -9 -20 -9 -22 0 -23 1 -14 24 5 13 9 14 20 5 8 -6
14 -15 14 -20z m160 -1 c0 -5 -9 -8 -20 -8 -23 0 -26 10 -8 28 9 9 14 9 20 -1
4 -6 8 -15 8 -19z m-82 4 c2 -7 -6 -12 -17 -12 -21 0 -27 11 -14 24 9 9 26 2
31 -12z m-50 -71 c20 -65 13 -65 -38 -1 l-32 40 30 0 c25 0 30 -5 40 -39z m58
23 c-3 -9 -9 -27 -12 -40 -8 -31 -20 -31 -28 0 -3 13 -9 31 -12 40 -5 13 1 16
26 16 25 0 31 -3 26 -16z m44 -24 c-51 -64 -58 -64 -38 1 10 34 15 39 40 39
l30 0 -32 -40z"/>
</g>
</svg>
