
<svg version="1.0" xmlns="http://www.w3.org/2000/svg"
 width="32.000000pt" height="32.000000pt" viewBox="0 0 32.000000 32.000000"
 preserveAspectRatio="xMidYMid meet">

<g transform="translate(0.000000,32.000000) scale(0.100000,-0.100000)"
fill="#000000" stroke="none">
<path d="M150 295 c0 -14 5 -25 10 -25 6 0 10 11 10 25 0 14 -4 25 -10 25 -5
0 -10 -11 -10 -25z"/>
<path d="M40 262 c0 -12 19 -26 26 -19 2 2 -2 10 -11 17 -9 8 -15 8 -15 2z"/>
<path d="M260 255 c-8 -9 -8 -15 -2 -15 12 0 26 19 19 26 -2 2 -10 -2 -17 -11z"/>
<path d="M115 239 c-31 -9 -95 -61 -95 -77 0 -5 14 -24 32 -41 63 -62 153 -62
216 0 18 17 32 35 32 39 0 17 -66 71 -99 80 -41 11 -45 11 -86 -1z m133 -39
c23 -17 42 -35 42 -40 0 -5 -19 -23 -42 -40 -32 -23 -52 -30 -88 -30 -36 0
-56 7 -88 30 -23 17 -42 35 -42 40 0 5 19 23 42 40 32 23 52 30 88 30 36 0 56
-7 88 -30z"/>
<path d="M145 211 c-3 -5 7 -11 22 -13 25 -3 28 -7 28 -38 0 -33 -2 -35 -35
-35 -29 0 -36 4 -38 23 -3 22 -22 32 -22 12 0 -14 46 -60 60 -60 14 0 60 46
60 60 0 14 -46 60 -59 60 -5 0 -12 -4 -16 -9z"/>
<path d="M140 160 c0 -13 7 -20 20 -20 13 0 20 7 20 20 0 13 -7 20 -20 20 -13
0 -20 -7 -20 -20z m30 0 c0 -5 -4 -10 -10 -10 -5 0 -10 5 -10 10 0 6 5 10 10
10 6 0 10 -4 10 -10z"/>
<path d="M50 65 c-7 -9 -11 -18 -8 -20 3 -3 11 1 18 10 7 9 11 18 8 20 -3 3
-11 -1 -18 -10z"/>
<path d="M250 72 c0 -5 7 -15 15 -22 8 -7 15 -8 15 -2 0 5 -7 15 -15 22 -8 7
-15 8 -15 2z"/>
<path d="M150 25 c0 -14 5 -25 10 -25 6 0 10 11 10 25 0 14 -4 25 -10 25 -5 0
-10 -11 -10 -25z"/>
</g>
</svg>
